<svg xmlns="http://www.w3.org/2000/svg" xmlns:xlink="http://www.w3.org/1999/xlink" width="500" zoomAndPan="magnify" viewBox="0 0 375 374.999991" height="500" preserveAspectRatio="xMidYMid meet" version="1.0"><defs><g/></defs><path fill="#008037" d="M 204.0625 178.226562 C 204.042969 178.210938 204.070312 178.183594 204.09375 178.199219 C 205.449219 179.390625 207.109375 180.089844 208.808594 180.660156 C 204.839844 178.652344 201.632812 175.472656 199.710938 171.496094 C 197.636719 171.226562 195.492188 171.261719 193.324219 171.550781 C 191.558594 171.785156 189.808594 172.222656 188.125 172.882812 C 189.015625 174.457031 190.101562 175.898438 191.328125 177.191406 C 195.054688 181.132812 199.671875 183.785156 205.117188 183.996094 C 207.539062 184.085938 209.992188 183.722656 212.347656 182.945312 C 211.179688 182.800781 209.988281 182.410156 209.070312 182.042969 C 207.066406 181.242188 205.527344 179.765625 204.0625 178.226562 " fill-opacity="1" fill-rule="nonzero"/><path fill="#008037" d="M 211.699219 179.523438 C 210.835938 178.492188 210.171875 177.320312 209.679688 176.070312 C 209.675781 176.058594 209.695312 176.050781 209.703125 176.0625 C 210.140625 176.832031 210.660156 177.558594 211.257812 178.210938 C 210.75 177.414062 210.308594 176.578125 209.910156 175.738281 C 208.632812 173.058594 208.050781 170.238281 208.148438 167.273438 C 208.152344 167.257812 208.171875 167.257812 208.175781 167.273438 C 208.359375 169.71875 209.03125 172.183594 210.097656 174.410156 C 208.847656 171.089844 208.472656 167.515625 209.078125 164.003906 C 209.078125 163.996094 209.078125 163.992188 209.082031 163.984375 C 207.578125 162.621094 205.855469 161.457031 203.980469 160.476562 C 202.402344 159.648438 200.722656 158.996094 198.964844 158.566406 C 198.78125 160.363281 198.839844 162.167969 199.09375 163.929688 C 199.402344 166.09375 199.949219 168.167969 200.777344 170.089844 C 201.035156 170.6875 201.320312 171.277344 201.632812 171.84375 C 202.8125 173.980469 204.386719 175.878906 206.425781 177.441406 C 208.308594 178.886719 210.46875 179.984375 212.785156 180.707031 C 212.375 180.328125 212.011719 179.898438 211.699219 179.523438 " fill-opacity="1" fill-rule="nonzero"/><path fill="#008037" d="M 221.40625 165.515625 C 221.332031 164.867188 221.226562 164.226562 221.089844 163.585938 C 220.65625 161.539062 219.90625 159.527344 218.910156 157.585938 C 218.097656 155.996094 217.101562 154.492188 215.914062 153.128906 C 214.730469 154.492188 213.734375 155.996094 212.921875 157.585938 C 211.949219 159.484375 211.210938 161.445312 210.769531 163.441406 C 210.632812 164.074219 210.523438 164.710938 210.445312 165.347656 C 210.148438 167.820312 210.328125 170.339844 211.109375 172.847656 C 211.882812 175.332031 213.164062 177.675781 214.851562 179.742188 C 214.957031 179.871094 215.0625 179.996094 215.167969 180.125 C 215.265625 180.246094 215.367188 180.363281 215.46875 180.484375 C 215.617188 180.65625 215.765625 180.828125 215.914062 181 C 216.136719 180.75 216.351562 180.5 216.5625 180.25 C 216.648438 180.148438 216.730469 180.042969 216.816406 179.941406 C 216.871094 179.875 216.925781 179.808594 216.980469 179.742188 C 218.667969 177.675781 219.949219 175.332031 220.722656 172.847656 C 221.484375 170.394531 221.675781 167.933594 221.40625 165.515625 " fill-opacity="1" fill-rule="nonzero"/><path fill="#008037" d="M 230.367188 171.84375 C 230.679688 171.277344 230.964844 170.6875 231.222656 170.089844 C 232.050781 168.167969 232.597656 166.09375 232.90625 163.929688 C 233.160156 162.167969 233.21875 160.363281 233.035156 158.566406 C 231.277344 158.996094 229.597656 159.648438 228.019531 160.476562 C 226.082031 161.492188 224.3125 162.699219 222.773438 164.121094 C 223.371094 167.699219 222.949219 171.339844 221.625 174.703125 C 221.449219 175.148438 221.257812 175.585938 221.054688 176.019531 C 221.683594 175.050781 222.195312 174.015625 222.546875 172.886719 C 222.550781 172.871094 222.570312 172.878906 222.570312 172.894531 C 222.226562 174.949219 221.613281 177 220.46875 178.757812 C 219.964844 179.53125 219.363281 180.230469 218.691406 180.867188 C 221.207031 180.148438 223.550781 178.992188 225.574219 177.441406 C 227.613281 175.878906 229.1875 173.980469 230.367188 171.84375 " fill-opacity="1" fill-rule="nonzero"/><path fill="#008037" d="M 238.675781 171.550781 C 236.507812 171.261719 234.363281 171.226562 232.289062 171.496094 C 230.910156 174.347656 228.871094 176.789062 226.367188 178.683594 C 227.347656 178.179688 228.300781 177.628906 229.207031 177.011719 C 229.238281 176.992188 229.269531 177.035156 229.246094 177.0625 C 227.644531 178.800781 225.867188 180.238281 223.691406 181.1875 C 223.238281 181.378906 222.78125 181.554688 222.320312 181.71875 C 222.664062 181.71875 223.007812 181.703125 223.355469 181.628906 C 223.960938 181.507812 224.546875 181.277344 225.117188 181.046875 C 225.132812 181.039062 225.140625 181.0625 225.128906 181.066406 C 224.007812 181.652344 222.761719 182.363281 221.550781 182.753906 C 221.109375 182.894531 220.5625 183.03125 220.023438 183.0625 C 222.265625 183.757812 224.589844 184.082031 226.882812 183.996094 C 232.332031 183.785156 236.945312 181.132812 240.671875 177.191406 C 241.898438 175.898438 242.984375 174.457031 243.875 172.882812 C 242.191406 172.222656 240.441406 171.785156 238.675781 171.550781 " fill-opacity="1" fill-rule="nonzero"/><g fill="#008037" fill-opacity="1"><g transform="translate(109.347171, 211.37168)"><g><path d="M 35.039062 -26.65625 L 35.039062 -27.542969 L 28.34375 -27.542969 L 18.539062 -7.363281 L 8.207031 -27.542969 L 1.332031 -27.542969 L 1.332031 -26.65625 C 3.105469 -26.300781 3.992188 -25.992188 3.992188 -24.351562 L 3.992188 -3.195312 C 3.992188 -1.550781 3.105469 -1.242188 1.332031 -0.929688 L 1.332031 0 L 8.25 0 L 8.25 -0.929688 C 6.519531 -1.242188 5.632812 -1.550781 5.632812 -3.195312 L 5.632812 -24.171875 L 16.589844 -2.839844 L 17.917969 -2.839844 L 28.34375 -24.261719 L 28.34375 -3.195312 C 28.34375 -1.550781 27.457031 -1.242188 25.679688 -0.929688 L 25.679688 0 L 35.039062 0 L 35.039062 -0.929688 C 33.265625 -1.242188 32.378906 -1.550781 32.378906 -3.195312 L 32.378906 -24.351562 C 32.378906 -25.992188 33.265625 -26.300781 35.039062 -26.65625 Z M 35.039062 -26.65625 "/></g></g></g><g fill="#008037" fill-opacity="1"><g transform="translate(145.709008, 211.37168)"><g><path d="M 1.332031 0 L 10.734375 0 L 10.734375 -0.929688 C 8.960938 -1.242188 8.027344 -1.550781 8.027344 -3.195312 L 8.027344 -24.351562 C 8.027344 -25.992188 8.960938 -26.300781 10.734375 -26.65625 L 10.734375 -27.542969 L 1.332031 -27.542969 L 1.332031 -26.65625 C 3.105469 -26.300781 3.992188 -25.992188 3.992188 -24.351562 L 3.992188 -3.195312 C 3.992188 -1.550781 3.105469 -1.242188 1.332031 -0.929688 Z M 1.332031 0 "/></g></g></g><g fill="#008037" fill-opacity="1"><g transform="translate(157.770496, 211.37168)"><g><path d="M 1.332031 0 L 22.753906 0 C 22.664062 -1.019531 22.886719 -1.820312 23.199219 -2.707031 L 24.128906 -5.5 L 23.109375 -5.5 L 22.355469 -4.167969 C 21.511719 -2.75 20.269531 -1.550781 17.476562 -1.417969 L 10.554688 -1.066406 C 8.695312 -1.019531 8.027344 -1.820312 8.027344 -3.195312 L 8.027344 -24.351562 C 8.027344 -25.992188 8.960938 -26.300781 10.734375 -26.65625 L 10.734375 -27.542969 L 1.332031 -27.542969 L 1.332031 -26.65625 C 3.105469 -26.300781 3.992188 -25.992188 3.992188 -24.351562 L 3.992188 -3.195312 C 3.992188 -1.550781 3.105469 -1.242188 1.332031 -0.929688 Z M 1.332031 0 "/></g></g></g><g fill="#008037" fill-opacity="1"><g transform="translate(182.780344, 211.37168)"><g><path d="M 1.332031 0 L 22.753906 0 C 22.664062 -1.019531 22.886719 -1.820312 23.199219 -2.707031 L 24.128906 -5.5 L 23.109375 -5.5 L 22.355469 -4.167969 C 21.511719 -2.75 20.269531 -1.550781 17.476562 -1.417969 L 10.554688 -1.066406 C 8.695312 -1.019531 8.027344 -1.820312 8.027344 -3.195312 L 8.027344 -24.351562 C 8.027344 -25.992188 8.960938 -26.300781 10.734375 -26.65625 L 10.734375 -27.542969 L 1.332031 -27.542969 L 1.332031 -26.65625 C 3.105469 -26.300781 3.992188 -25.992188 3.992188 -24.351562 L 3.992188 -3.195312 C 3.992188 -1.550781 3.105469 -1.242188 1.332031 -0.929688 Z M 1.332031 0 "/></g></g></g><g fill="#008037" fill-opacity="1"><g transform="translate(207.790192, 211.37168)"><g><path d="M 26.570312 -5.277344 L 16.808594 -27.8125 L 14.28125 -27.542969 C 14.28125 -26.703125 14.105469 -25.816406 13.394531 -24.171875 L 4.835938 -4.167969 C 3.902344 -2.085938 2.972656 -1.332031 0.886719 -0.929688 L 0.886719 0 L 9.316406 0 L 9.316406 -0.929688 C 6.742188 -1.242188 5.675781 -2.171875 6.476562 -4.125 L 7.851562 -7.320312 L 7.585938 -6.699219 C 8.160156 -8.027344 9.003906 -8.382812 10.289062 -8.382812 L 18.894531 -8.382812 C 20.09375 -8.382812 20.847656 -8.074219 21.421875 -7.007812 L 22.753906 -3.902344 C 23.464844 -2.171875 23.550781 -1.375 20.757812 -0.929688 L 20.757812 0 L 30.738281 0 L 30.738281 -0.929688 C 28.476562 -1.242188 27.898438 -2.128906 26.570312 -5.277344 Z M 19.074219 -9.757812 L 10.023438 -9.757812 C 9.492188 -9.757812 9.136719 -10.023438 9.226562 -10.511719 L 14.105469 -21.957031 C 14.414062 -22.753906 14.636719 -22.753906 14.992188 -22 L 20.492188 -9.179688 L 19.738281 -10.910156 C 20.046875 -10.15625 19.648438 -9.757812 19.074219 -9.757812 Z M 9.316406 -10.867188 L 9.269531 -10.824219 C 9.316406 -10.824219 9.316406 -10.867188 9.316406 -10.867188 Z M 9.316406 -10.867188 "/></g></g></g><g fill="#008037" fill-opacity="1"><g transform="translate(239.407251, 211.37168)"><g><path d="M 7.539062 0 L 18.71875 0 L 18.71875 -0.929688 C 16.054688 -1.242188 15.167969 -1.550781 15.167969 -3.195312 L 15.167969 -23.996094 C 15.167969 -25.503906 15.433594 -26.125 18.761719 -26.125 C 21.867188 -26.125 22.929688 -25.238281 24.128906 -21.777344 L 25.148438 -21.777344 L 24.441406 -27.675781 L 21.910156 -27.542969 L 4.347656 -27.542969 L 1.820312 -27.675781 L 1.109375 -21.777344 L 2.128906 -21.777344 C 3.371094 -25.238281 4.390625 -26.125 7.496094 -26.125 C 10.824219 -26.125 11.132812 -25.503906 11.132812 -23.996094 L 11.132812 -3.195312 C 11.132812 -1.550781 10.203125 -1.242188 7.539062 -0.929688 Z M 7.539062 0 "/></g></g></g></svg>